# xmcd
#
# Track frame offsets:
#	150
#	35035
#	73045
#	99682
#	114382
#	135675
#	161545
#
# Disc length: 2391 seconds
#
# Revision: 0
# Processed by: cddbd v1.5.2PL0 Copyright (c) Steve Scherf et al.
# Submitted via: FairStars CD Ripper 1.90
#
DISCID=5f095507
DTITLE=Ed Strauman - Listen with your Feet
DYEAR=1999
DGENRE=Jazz
TTITLE0=The Blues are out to Getcha
TTITLE1=Sophisticated Strut
TTITLE2=Palpitation Affirmation
TTITLE3=To be with you Again
TTITLE4=You're so so so Sociable
TTITLE5=You Can't Pas de Duex
TTITLE6=Out of the Blue
EXTD=
EXTT0=
EXTT1=
EXTT2=
EXTT3=
EXTT4=
EXTT5=
EXTT6=
PLAYORDER=
